<svg width="291" height="88" viewBox="0 0 291 88" fill="none" xmlns="http://www.w3.org/2000/svg">
<path d="M0 43.836C0 37.601 1.30411 31.6679 3.65367 26.2979V61.3741C1.30411 56.0041 0 50.0709 0 43.836Z" fill="white"/>
<path d="M7.30664 19.599C8.41406 17.9257 9.63733 16.336 10.9603 14.8379V72.8331C9.63733 71.335 8.41406 69.7453 7.30664 68.072V19.599Z" fill="white"/>
<path d="M14.6113 11.1628C15.7726 10.1227 16.9932 9.14193 18.265 8.22852V79.4454C16.9932 78.532 15.7726 77.5512 14.6113 76.5111V11.1628Z" fill="white"/>
<path d="M21.9199 5.86537C23.1055 5.17828 24.3234 4.55048 25.5736 3.97656V83.6944C24.3234 83.1232 23.1055 82.4927 21.9199 81.8056V5.86537Z" fill="white"/>
<path d="M29.2246 2.49538C30.4182 2.07236 31.6388 1.70052 32.8783 1.37988V86.2926C31.6415 85.972 30.4182 85.5974 29.2246 85.1771V2.49538Z" fill="white"/>
<path d="M36.5312 0.609423C37.733 0.407339 38.9509 0.251062 40.1849 0.151367V87.5241C38.9509 87.4217 37.733 87.2682 36.5312 87.0661V0.609423Z" fill="white"/>
<path d="M47.4896 3.81803C67.9431 5.66911 84.0209 22.9109 84.0209 43.8359C84.0209 64.761 67.9431 82.0027 47.4896 83.8538V3.81803ZM43.8359 0V87.6718C68.0482 87.6718 87.6719 68.0455 87.6719 43.8359C87.6719 19.6263 68.0482 0 43.8359 0Z" fill="white"/>
<path d="M111.596 11.1387H116.362V33.9013H128.835V38.0346H111.596V11.1387Z" fill="white"/>
<path d="M130.557 13.5393C130.557 12.0762 131.729 10.958 133.281 10.958C134.833 10.958 136.007 12.0762 136.007 13.5393C136.007 15.0024 134.833 16.1394 133.281 16.1394C131.729 16.1394 130.557 15.0212 130.557 13.5393ZM131.007 18.974H135.555V38.0345H131.007V18.974Z" fill="white"/>
<path d="M139.216 39.8017H143.675C144.109 41.4453 145.68 42.3102 147.808 42.3102C150.659 42.3102 152.303 40.7394 152.303 37.8159V34.9086H152.284C151.055 37.1477 149.034 38.1581 146.526 38.1581C141.544 38.1581 138.275 34.1515 138.275 28.4123C138.275 22.6731 141.598 18.5938 146.488 18.5938C148.962 18.5938 151.036 19.623 152.3 21.8055H152.319V18.9737H156.813V37.5465C156.813 43.45 152.968 45.8319 147.806 45.8319C142.643 45.8319 139.72 43.5039 139.213 39.8017H139.216ZM152.518 28.3584C152.518 24.694 150.57 22.3121 147.59 22.3121C144.774 22.3121 142.878 24.4784 142.878 28.3584C142.878 32.2384 144.774 34.4047 147.59 34.4047C150.57 34.4047 152.518 32.0229 152.518 28.3584Z" fill="white"/>
<path d="M165.062 38.0346H160.514V11.1387H165.062V21.771C166.361 19.6962 168.274 18.5942 170.839 18.5942C174.827 18.5942 177.642 21.2294 177.642 26.1198V38.0346H173.075V26.8446C173.075 24.0478 171.666 22.5847 169.23 22.5847C166.794 22.5847 165.059 24.01 165.059 27.2595V38.0346H165.062Z" fill="white"/>
<path d="M191.039 22.6386H187.159V32.5677C187.159 33.923 187.609 34.3729 189.091 34.3729H191.039V38.0374H188.296C184.416 38.0374 182.592 36.5042 182.592 33.2359V22.6413H179.27V18.9769H182.592V13.7793H187.159V18.9769H191.039V22.6413V22.6386Z" fill="white"/>
<path d="M198.089 38.0346H193.541V11.1387H198.089V21.771C199.388 19.6962 201.301 18.5942 203.866 18.5942C207.854 18.5942 210.67 21.2294 210.67 26.1198V38.0346H206.103V26.8446C206.103 24.0478 204.693 22.5847 202.258 22.5847C199.822 22.5847 198.087 24.01 198.087 27.2595V38.0346H198.089Z" fill="white"/>
<path d="M213.322 28.523C213.322 22.6006 217.113 18.54 222.726 18.54C228.338 18.54 232.129 22.6006 232.129 28.523C232.129 34.4453 228.338 38.4682 222.726 38.4682C217.113 38.4682 213.322 34.4427 213.322 28.523ZM227.511 28.523C227.511 24.713 225.633 22.35 222.729 22.35C219.824 22.35 217.927 24.6968 217.927 28.523C217.927 32.3491 219.786 34.6609 222.729 34.6609C225.671 34.6609 227.511 32.314 227.511 28.523Z" fill="white"/>
<path d="M234.758 30.8858V18.9736H239.306V30.1637C239.306 32.9605 240.713 34.4236 243.151 34.4236C245.589 34.4236 247.322 32.9982 247.322 29.7487V18.9736H251.889V38.0341H247.414V35.1107C246.115 37.2581 244.183 38.4141 241.548 38.4141C237.557 38.4141 234.761 35.7789 234.761 30.8885L234.758 30.8858Z" fill="white"/>
<path d="M254.59 32.1494H259.084C259.284 34.0085 260.617 35.0728 262.894 35.0728C265.171 35.0728 266.432 34.1163 266.432 32.7637C266.432 31.6078 265.44 30.9396 263.832 30.5974L260.582 29.9292C256.937 29.172 255.024 27.3128 255.024 24.4244C255.024 20.9216 258.039 18.5586 262.695 18.5586C267.351 18.5586 270.474 20.9944 270.584 24.9121H266.305C266.27 23.2146 264.88 21.9698 262.803 21.9698C260.725 21.9698 259.572 22.9802 259.572 24.2789C259.572 25.416 260.51 26.1192 262.099 26.4641L265.529 27.1673C269.302 27.9622 271.053 29.622 271.053 32.4215C271.053 36.1398 267.677 38.4867 262.967 38.4867C258.257 38.4867 254.881 36.2476 254.59 32.1521V32.1494Z" fill="white"/>
<path d="M272.75 28.523C272.75 22.7299 276.522 18.54 281.865 18.54C287.208 18.54 290.999 22.6006 290.999 28.4502V29.695H277.209C277.317 32.799 279.087 34.8765 282.156 34.8765C284.449 34.8765 285.982 33.7771 286.508 32.1497H290.768C290.046 35.8869 286.508 38.4682 282.049 38.4682C276.326 38.4682 272.753 34.2972 272.753 28.523H272.75ZM286.632 26.556C286.343 23.8292 284.573 22.1506 281.938 22.1506C279.303 22.1506 277.551 23.8292 277.244 26.556H286.632Z" fill="white"/>
<path d="M119.194 47.7529H125.186L134.754 74.6489H129.5L127.353 68.2226H116.92L114.719 74.6489H109.594L119.197 47.7529H119.194ZM126.054 64.3049L124.79 60.5138C123.996 58.0403 123.201 55.459 122.19 52.0667C121.18 55.459 120.366 58.043 119.555 60.5138L118.254 64.3049H126.051H126.054Z" fill="white"/>
<path d="M141.208 74.6494H136.66V55.5889H141.136V58.5124C142.434 56.3649 144.366 55.209 146.985 55.209C150.973 55.209 153.789 57.8442 153.789 62.7373V74.6494H149.222V63.4567C149.222 60.6598 147.812 59.1968 145.377 59.1968C142.941 59.1968 141.206 60.6221 141.206 63.8716V74.6467L141.208 74.6494Z" fill="white"/>
<path d="M156.484 69.2333C156.484 64.9007 160.041 63.8364 163.975 63.4214C167.513 63.0253 168.723 62.9714 168.723 61.67V61.5245C168.723 59.8998 167.424 58.7439 165.239 58.7439C163.053 58.7439 161.539 59.8998 161.413 61.5057H157.026C157.242 57.7146 160.348 55.2061 165.33 55.2061C170.312 55.2061 173.236 57.6796 173.236 61.6512V74.6465H168.76V71.9574H168.688C167.785 73.6549 166.179 74.9536 163.075 74.9536C159.284 74.9536 156.487 73.0406 156.487 69.2306L156.484 69.2333ZM168.741 67.5924V65.5339C168.181 65.8949 166.413 66.1832 164.535 66.4715C162.587 66.7598 160.925 67.4631 160.925 69.1983C160.925 70.6964 162.207 71.5802 164.193 71.5802C167.171 71.5802 168.741 69.8099 168.741 67.5924Z" fill="white"/>
<path d="M181.433 74.6489H176.885V47.7529H181.433V74.6489Z" fill="white"/>
<path d="M185.321 78.4914H187.576C188.805 78.4914 189.381 77.8771 189.923 76.379L190.626 74.5387L183.281 55.5859H188.102L191.604 65.515C192.073 66.9215 192.542 68.3307 192.976 69.7398C193.41 68.3307 193.86 66.9242 194.347 65.515L197.831 55.5859H202.598L194.078 77.7882C192.941 80.7682 191.063 82.1936 188.301 82.1936H185.321V78.4941V78.4914Z" fill="white"/>
<path d="M215.424 59.2509H211.544V69.18C211.544 70.5326 211.994 70.9852 213.476 70.9852H215.424V74.6497H212.681C208.801 74.6497 206.977 73.1165 206.977 69.8482V59.2536H203.654V55.5892H206.977V50.3916H211.544V55.5892H215.424V59.2536V59.2509Z" fill="white"/>
<path d="M217.207 50.1545C217.207 48.6914 218.379 47.5732 219.931 47.5732C221.483 47.5732 222.658 48.6914 222.658 50.1545C222.658 51.6176 221.483 52.7547 219.931 52.7547C218.379 52.7547 217.207 51.6365 217.207 50.1545ZM217.657 55.5865H222.205V74.647H217.657V55.5865Z" fill="white"/>
<path d="M224.848 65.1353C224.848 59.2506 228.585 55.1523 234.162 55.1523C238.945 55.1523 242.413 58.1674 242.809 62.4085H238.35C238.007 60.3688 236.579 58.9434 234.216 58.9434C231.236 58.9434 229.45 61.363 229.45 65.1353C229.45 68.9075 231.22 71.2894 234.216 71.2894C236.598 71.2894 237.881 69.9179 238.314 67.8055H242.809C242.483 71.9765 238.983 75.0805 234.162 75.0805C228.585 75.0805 224.848 71.0199 224.848 65.1353Z" fill="white"/>
<path d="M244.521 68.7646H249.016C249.215 70.6238 250.549 71.6881 252.826 71.6881C255.103 71.6881 256.364 70.7315 256.364 69.3789C256.364 68.223 255.372 67.5548 253.763 67.2126L250.514 66.5444C246.868 65.7872 244.955 63.9281 244.955 61.0396C244.955 57.5369 247.97 55.1738 252.626 55.1738C257.282 55.1738 260.405 57.6096 260.516 61.5273H256.237C256.202 59.8298 254.812 58.585 252.734 58.585C250.657 58.585 249.504 59.5954 249.504 60.8941C249.504 62.0312 250.441 62.7344 252.031 63.0766L255.461 63.7799C259.233 64.5747 260.985 66.2345 260.985 69.034C260.985 72.7524 257.608 75.0992 252.899 75.0992C248.189 75.0992 244.812 72.8602 244.521 68.7646Z" fill="white"/>
</svg>
