<svg width="2500" height="1000" viewBox="0 0 2500 1000" fill="none" xmlns="http://www.w3.org/2000/svg">
<path fill-rule="evenodd" clip-rule="evenodd" d="M1207.23 763.398H1479.89C1520.63 763.398 1554.06 746.672 1581.22 713.209C1607.34 680.809 1620.92 642.14 1620.92 598.252C1620.92 509.404 1507.06 446.687 1463.16 446.687H1313.78C1302.29 446.687 1292.87 441.459 1285.57 433.106C1278.26 423.691 1274.08 413.246 1274.08 400.696C1274.08 386.063 1278.26 373.524 1285.57 363.067C1293.93 352.622 1304.37 346.352 1316.91 346.352H1596.89V234.498H1311.68C1260.49 234.498 1220.78 250.183 1192.57 280.489C1167.51 308.713 1154.96 346.341 1154.96 391.291C1154.96 435.189 1167.51 473.87 1192.57 505.207C1220.78 539.701 1254.22 557.489 1294.96 557.489H1467.35C1477.77 557.489 1486.14 560.624 1492.4 568.966C1499.72 577.329 1502.85 587.785 1502.85 599.294C1502.85 612.885 1497.63 625.424 1489.27 635.881C1479.87 645.285 1469.42 650.513 1455.85 650.513H1180.06L1175.88 643.192L1072.46 310.806L1067.23 300.35C1042.16 249.131 1000.38 224.052 942.918 224.052C911.576 224.052 883.368 231.363 858.293 247.048C832.176 262.722 815.459 285.717 806.06 314.993L667.11 762.346L793.517 763.409L920.965 365.171C924.098 352.622 931.416 346.352 940.815 346.352C946.04 346.352 950.214 348.435 953.347 351.58C956.481 355.756 958.573 359.943 959.614 365.171L1088.1 763.409L1207.23 763.398ZM267.008 397.561V762.346H150V357.839C150 305.578 162.543 268.991 189.7 247.048C210.591 231.363 241.933 223 285.807 223C321.322 223 351.623 233.456 378.78 253.317C405.937 273.178 423.695 300.35 433.105 333.802L509.361 602.428L521.904 639.015C522.945 646.326 527.129 651.555 531.303 655.72C536.529 659.918 541.743 662.011 548.02 659.918C558.471 658.876 563.696 652.596 563.696 643.192V235.55H683.837V637.963C683.837 682.913 673.397 716.376 651.455 740.413C630.564 764.45 599.222 777 557.43 777C520.863 777 490.562 769.678 466.538 757.139C437.289 742.507 418.48 719.511 410.121 689.183L322.373 382.928L316.107 363.067C314.015 355.756 309.841 350.528 304.616 345.3C299.39 341.113 293.124 340.072 286.858 341.113C280.592 342.165 276.418 345.3 272.233 351.57C268.799 357.24 266.991 363.748 267.008 370.378V397.561ZM2137 763.398L2001.19 310.806L1995.97 300.35C1970.89 249.131 1929.11 224.052 1871.65 224.052C1840.31 224.052 1812.1 231.363 1787.04 247.048C1760.9 262.722 1744.21 285.717 1734.78 314.993L1595.84 762.346L1722.25 763.409L1849.7 365.171C1852.83 352.622 1860.15 346.352 1869.55 346.352C1874.78 346.352 1878.95 348.435 1882.08 351.58C1885.24 355.756 1887.31 359.943 1888.37 365.171L2016.86 763.409L2137 763.398Z" fill="white"/>
</svg>
