<svg width="2500" height="1000" viewBox="0 0 2500 1000" fill="none" xmlns="http://www.w3.org/2000/svg">
<path fill-rule="evenodd" clip-rule="evenodd" d="M1314.23 763.398H1586.89C1627.63 763.398 1661.06 746.672 1688.22 713.209C1714.34 680.809 1727.92 642.14 1727.92 598.252C1727.92 509.404 1614.06 446.687 1570.16 446.687H1420.78C1409.29 446.687 1399.87 441.459 1392.57 433.106C1385.25 423.691 1381.08 413.246 1381.08 400.696C1381.08 386.063 1385.25 373.524 1392.57 363.067C1400.93 352.622 1411.37 346.352 1423.91 346.352H1703.89V234.498H1418.68C1367.49 234.498 1327.78 250.183 1299.57 280.489C1274.51 308.713 1261.96 346.341 1261.96 391.291C1261.96 435.189 1274.51 473.87 1299.57 505.207C1327.78 539.701 1361.22 557.489 1401.96 557.489H1574.35C1584.77 557.489 1593.14 560.624 1599.4 568.966C1606.72 577.329 1609.85 587.785 1609.85 599.294C1609.85 612.885 1604.63 625.424 1596.27 635.881C1586.87 645.285 1576.42 650.513 1562.85 650.513H1287.06L1282.88 643.192L1179.46 310.806L1174.23 300.35C1149.16 249.131 1107.38 224.052 1049.92 224.052C1018.58 224.052 990.368 231.363 965.293 247.048C939.176 262.722 922.459 285.717 913.06 314.993L774.11 762.346L900.517 763.409L1027.97 365.171C1031.1 352.622 1038.42 346.352 1047.82 346.352C1053.04 346.352 1057.21 348.435 1060.35 351.58C1063.48 355.756 1065.57 359.943 1066.61 365.171L1195.1 763.409L1314.23 763.398ZM374.008 397.561V762.346H257V357.839C257 305.578 269.543 268.991 296.7 247.048C317.591 231.363 348.933 223 392.807 223C428.322 223 458.623 233.456 485.78 253.317C512.937 273.178 530.695 300.35 540.105 333.802L616.361 602.428L628.904 639.015C629.945 646.326 634.129 651.555 638.303 655.72C643.529 659.918 648.743 662.011 655.02 659.918C665.471 658.876 670.696 652.596 670.696 643.192V235.55H790.837V637.963C790.837 682.913 780.397 716.376 758.455 740.413C737.564 764.45 706.222 777 664.43 777C627.863 777 597.562 769.678 573.538 757.139C544.289 742.507 525.48 719.511 517.121 689.183L429.373 382.928L423.107 363.067C421.015 355.756 416.841 350.528 411.616 345.3C406.39 341.113 400.124 340.072 393.858 341.113C387.592 342.165 383.418 345.3 379.233 351.57C375.799 357.24 373.991 363.748 374.008 370.378V397.561ZM2244 763.398L2108.19 310.806L2102.97 300.35C2077.89 249.131 2036.11 224.052 1978.65 224.052C1947.31 224.052 1919.1 231.363 1894.04 247.048C1867.9 262.722 1851.21 285.717 1841.78 314.993L1702.84 762.346L1829.25 763.409L1956.7 365.171C1959.83 352.622 1967.15 346.352 1976.55 346.352C1981.78 346.352 1985.95 348.435 1989.08 351.58C1992.24 355.756 1994.31 359.943 1995.37 365.171L2123.86 763.409L2244 763.398Z" fill="white"/>
</svg>
